#!OML:ASF E:\Steps\Project 1\Capture day 1\Session 2\Subject.ASF
:FULLY-SPECIFIED
:DEGREES
3022
root 11.4861 16.7253 5.19736 9.71026 3.36922 -6.10698
lowerback -8.59359 -7.27877 1.52593
upperback 6.13926 -10.4274 3.61521
thorax 11.8922 -5.04842 1.09976
lowerneck -1.31277 0.89911 -4.37672
upperneck 17.9834 1.167 1.72233
head 5.59826 0.361792 1.3281
rclavicle 3.78685e-014 1.33186e-014
rhumerus -61.5926 -21.86 -54.6414
rradius 26.4089
rwrist 11.7403
rhand 0.0773397 -780.731
rfingers 7.12502
rthumb 25.6644 990.979
lclavicle 3.78685e-014 1.33186e-014
lhumerus 1.01242 -12.4561 69.8015
lradius 42.2979
lwrist 0.811585
lhand -22.0826 -11.6379
lfingers 7.12502
lthumb 4.32896 -341.702
rfemur -101.562 4.20472 3.49358
rtibia 71.7597
rfoot 338.225 -16.2794
rtoes -27.4342
lfemur -15.1162 -14.0855 -17.1676
ltibia 17.9223
lfoot 353.177 1.06517
ltoes 4.13778
3023
root 11.4821 16.7275 5.20109 9.28164 3.45573 -6.33625
lowerback -8.63912 -7.29857 1.85313
upperback 6.40201 -10.5203 3.61995
thorax 12.1651 -5.05957 0.89185
lowerneck -1.90541 0.998051 -4.03998
upperneck 18.2001 1.32129 1.62337
head 5.76525 0.451245 1.25465
rclavicle 1.67973e-014 1.43125e-014
rhumerus -61.3173 -22.0369 -55.2651
rradius 26.5155
rwrist 11.7792
rhand 0.000337244 -780.755
rfingers 7.12502
rthumb 25.5907 990.944
lclavicle 1.67973e-014 1.43125e-014
lhumerus 1.98494 -12.7017 69.9365
lradius 42.7038
lwrist 0.731185
lhand -22.3446 -11.9974
lfingers 7.12502
lthumb 4.07605 -342.057
rfemur -102.826 3.9842 3.33462
rtibia 72.4615
rfoot 337.627 -15.6547
rtoes -19.9339
lfemur -14.725 -14.1794 -17.0593
ltibia 18.1385
lfoot 353.036 1.24414
ltoes 4.63818
3024
root 11.4774 16.7292 5.20445 8.83791 3.49555 -6.523
lowerback -8.54962 -7.31436 2.05657
upperback 6.5942 -10.5876 3.68739
thorax 12.3116 -5.07626 0.843247
lowerneck -1.74627 0.850528 -4.39147
upperneck 17.8446 1.11263 1.80955
head 5.62954 0.344671 1.35692
rclavicle -2.39536e-014 -1.51076e-014
rhumerus -61.061 -21.9132 -55.8885
rradius 26.8456
rwrist 11.514
rhand 0.120384 -781.049
rfingers 7.12502
rthumb 25.7057 990.666
lclavicle -2.39536e-014 -1.51076e-014
lhumerus 2.86651 -12.9781 70.1805
lradius 43.1123
lwrist 0.785378
lhand -22.4921 -12.1558
lfingers 7.12502
lthumb 3.93354 -342.212
rfemur -104.029 3.87004 3.40549
rtibia 73.2495
rfoot 338.645 -16.5889
rtoes -25.4433
lfemur -14.2461 -14.3328 -17.0131
ltibia 18.2509
lfoot 352.915 1.50386
ltoes 5.98957
3025
root 11.4722 16.732 5.21047 8.34573 3.50891 -6.67766
lowerback -8.27978 -7.33008 2.21842
upperback 6.69726 -10.6278 3.72044
thorax 12.2445 -5.08875 0.815683
lowerneck -1.55659 0.760451 -4.51259
upperneck 17.7156 1.00024 1.74621
head 5.56084 0.279335 1.34925
rclavicle 1.02374e-013 -5.725e-014
rhumerus -60.8799 -21.365 -56.8567
rradius 27.3
rwrist 10.7814
rhand 0.298287 -780.99
rfingers 7.12502
rthumb 25.876 990.75
lclavicle 1.02374e-013 -5.725e-014
lhumerus 3.61572 -13.3573 70.3213
lradius 43.507
lwrist 0.590001
lhand -22.4908 -12.2265
lfingers 7.12502
lthumb 3.93481 -342.283
rfemur -105.111 3.79427 3.39686
rtibia 73.934
rfoot 339.491 -17.256
rtoes -29.732
lfemur -13.6535 -14.4758 -17.0105
ltibia 18.2734
lfoot 352.794 1.75432
ltoes 7.82622
3026
root 11.469 16.7327 5.22006 7.8925 3.50723 -6.79715
lowerback -8.13909 -7.33667 2.42672
upperback 6.82064 -10.6603 3.67371
thorax 12.2526 -5.08518 0.662174
lowerneck -2.16441 1.04017 -3.97542
upperneck 18.2437 1.41156 1.46778
head 5.823 0.48906 1.20197
rclavicle -7.17613e-014 7.2954e-014
rhumerus -60.7368 -20.9701 -57.8778
rradius 27.8247
rwrist 10.2466
rhand 0.492891 -780.299
rfingers 7.12502
rthumb 26.0624 991.469
lclavicle -7.17613e-014 7.2954e-014
lhumerus 4.39584 -13.5264 70.3818
lradius 43.8813
lwrist -0.398319
lhand -22.2358 -12.087
lfingers 7.12502
lthumb 4.18106 -342.148
rfemur -106.096 3.5116 2.79431
rtibia 74.1594
rfoot 339.147 -16.0949
rtoes -21.9701
lfemur -13.1047 -14.5793 -17.0609
ltibia 18.3253
lfoot 352.616 1.96096
ltoes 10.1321
3027
root 11.4696 16.7297 5.23037 7.45565 3.41225 -6.7792
lowerback -7.94461 -7.33415 2.49556
upperback 6.88411 -10.6575 3.65419
thorax 12.1902 -5.08091 0.628399
lowerneck -2.3911 1.29943 -3.80111
upperneck 18.337 1.76419 1.44244
head 5.88285 0.668888 1.1869
rclavicle 3.62782e-015 -1.68967e-014
rhumerus -60.5831 -20.3272 -58.9046
rradius 28.5251
rwrist 9.50196
rhand 0.805201 -779.992
rfingers 7.12502
rthumb 26.3614 991.82
lclavicle 3.62782e-015 -1.68967e-014
lhumerus 4.96732 -13.7536 70.6682
lradius 44.223
lwrist -0.684347
lhand -22.3791 -12.3144
lfingers 7.12502
lthumb 4.04273 -342.373
rfemur -107.135 3.37948 2.62415
rtibia 74.9257
rfoot 339.825 -16.4183
rtoes -22.5694
lfemur -12.6149 -14.5374 -17.2902
ltibia 18.4914
lfoot 352.486 2.09232
ltoes 11.8802
3028
root 11.4706 16.7289 5.23831 6.99583 3.29494 -6.85528
lowerback -7.62886 -7.30187 2.62345
upperback 6.93554 -10.6239 3.72685
thorax 12.049 -5.06595 0.684267
lowerneck -1.77364 1.14532 -4.57151
upperneck 17.7296 1.4878 2.06533
head 5.58176 0.534203 1.48563
rclavicle -3.67752e-015 3.63776e-014
rhumerus -60.3349 -19.4509 -59.9854
rradius 29.2534
rwrist 8.45123
rhand 1.10002 -780.072
rfingers 7.12502
rthumb 26.6436 991.783
lclavicle -3.67752e-015 3.63776e-014
lhumerus 5.59 -13.9629 71.0642
lradius 44.4855
lwrist -1.082
lhand -22.7019 -12.9091
lfingers 7.12502
lthumb 3.73094 -342.962
rfemur -107.988 3.35813 2.45509
rtibia 75.4844
rfoot 340.327 -16.7602
rtoes -24.0353
lfemur -12.1175 -14.4272 -17.388
ltibia 18.6591
lfoot 352.356 2.18109
ltoes 12.7218
3029
root 11.4676 16.7283 5.2453 6.60667 3.21366 -7.12086
lowerback -7.44108 -7.25914 2.89262
upperback 7.02879 -10.6095 3.84505
thorax 12.0184 -5.04616 0.690724
lowerneck -1.793 0.966136 -4.70473
upperneck 17.8389 1.28548 1.87545
head 5.6282 0.413513 1.43903
rclavicle 6.09275e-014 6.95746e-015
rhumerus -59.9506 -18.6623 -61.0764
rradius 29.8923
rwrist 7.38007
rhand 1.14188 -779.95
rfingers 7.12502
rthumb 26.6836 991.911
lclavicle 6.09275e-014 6.95746e-015
lhumerus 6.24573 -14.1962 71.3681
lradius 44.8307
lwrist -1.483
lhand -22.9212 -13.3343
lfingers 7.12502
lthumb 3.51922 -343.384
rfemur -108.736 3.35368 2.39712
rtibia 75.7952
rfoot 340.655 -16.8597
rtoes -24.0281
lfemur -11.704 -14.376 -17.2096
ltibia 18.7768
lfoot 352.146 2.31786
ltoes 13.8131
3030
root 11.4639 16.7246 5.249 6.18522 3.08638 -7.21837
lowerback -7.15661 -7.21867 2.95695
upperback 7.0986 -10.5568 3.90199
thorax 11.9259 -5.02483 0.760417
lowerneck -2.3458 1.07723 -4.2381
upperneck 18.1169 1.48564 1.52083
head 5.81027 0.514771 1.2669
rclavicle 2.24627e-014 9.74045e-015
rhumerus -59.6654 -18.114 -61.857
rradius 30.5121
rwrist 6.59895
rhand 1.1019 -779.87
rfingers 7.12502
rthumb 26.6454 991.985
lclavicle 2.24627e-014 9.74045e-015
lhumerus 6.7508 -14.5413 71.6465
lradius 45.2915
lwrist -1.78788
lhand -23.0386 -13.1481
lfingers 7.12502
lthumb 3.40579 -343.196
rfemur -109.439 3.30361 2.26664
rtibia 76.2549
rfoot 340.844 -16.9211
rtoes -23.6596
lfemur -11.2448 -14.21 -17.2517
ltibia 18.8732
lfoot 352.013 2.53033
ltoes 12.4222
3031
root 11.4624 16.7223 5.25089 5.72164 2.89423 -7.10565
lowerback -6.74814 -7.1667 2.83129
upperback 7.10935 -10.4469 3.90742
thorax 11.7124 -4.99368 0.904493
lowerneck -2.13606 1.17566 -4.21676
upperneck 18.1166 1.64093 1.31221
head 5.77254 0.576465 1.20429
rclavicle 8.84592e-015 -2.98674e-014
rhumerus -59.5741 -18.0414 -62.059
rradius 31.1326
rwrist 6.54818
rhand 1.15029 -779.851
rfingers 7.12502
rthumb 26.6917 992.011
lclavicle 8.84592e-015 -2.98674e-014
lhumerus 7.15123 -14.9523 71.9524
lradius 45.669
lwrist -1.94742
lhand -23.0341 -13.1385
lfingers 7.12502
lthumb 3.41021 -343.186
rfemur -110.063 3.2675 2.04494
rtibia 76.8699
rfoot 341.018 -17.1393
rtoes -24.6187
lfemur -10.6849 -14.0121 -17.5472
ltibia 18.9252
lfoot 351.871 2.69699
ltoes 9.34573
3032
root 11.4627 16.7218 5.25458 5.37322 2.81776 -7.11716
lowerback -6.43947 -7.16908 2.87999
upperback 7.03623 -10.4366 3.97155
thorax 11.4462 -4.99876 0.994128
lowerneck -1.59711 1.34401 -4.4055
upperneck 17.8072 1.8588 1.2904
head 5.57619 0.672175 1.23257
rclavicle 3.67255e-014 -3.29983e-014
rhumerus -59.4033 -17.6607 -62.4382
rradius 31.7988
rwrist 6.25955
rhand 1.01939 -779.928
rfingers 7.12502
rthumb 26.5664 991.915
lclavicle 3.67255e-014 -3.29983e-014
lhumerus 7.31241 -15.2332 72.2773
lradius 46.083
lwrist -2.11443
lhand -23.1054 -13.5173
lfingers 7.12502
lthumb 3.34135 -343.564
rfemur -110.681 3.12704 1.93318
rtibia 77.4293
rfoot 341.27 -17.3732
rtoes -24.7917
lfemur -10.2677 -14.0949 -17.6288
ltibia 18.9836
lfoot 351.625 2.68065
ltoes 10.0008
